# Blender v2.93.4 OBJ File: 'TestRoom.blend'
# www.blender.org
o Cube_Cube.002
v -12.768302 -5.499063 15.470117
v -12.768302 5.499063 15.470117
v -12.768302 -5.499063 -15.470117
v -12.768302 5.499063 -15.470117
v 12.768302 -5.499063 15.470117
v 12.768302 5.499063 15.470117
v 12.768302 -5.499063 -15.470117
v 12.768302 5.499063 -15.470117
v -12.768302 -5.499063 -12.376094
v -12.768302 5.499063 -12.376094
v 12.768302 -5.499063 -12.376094
v 12.768302 5.499063 -12.376094
v -12.768302 -5.499063 12.685495
v 12.768302 5.499063 12.685495
v -12.768302 5.499063 12.685495
v 12.768302 -5.499063 12.685495
v -10.214642 -5.499063 -15.470117
v -10.214642 5.499063 -15.470117
v -10.214642 -5.499063 15.470117
v -10.214642 5.499063 15.470117
v -10.214642 5.499063 -12.376094
v -10.214642 -5.499063 -12.376094
v -10.214642 5.499063 12.685495
v -10.214642 -5.499063 12.685495
v 10.470008 5.499063 -15.470117
v 10.470008 -5.499063 15.470117
v 10.470008 5.499063 -12.376094
v 10.470008 5.499063 12.685495
v 10.470008 -5.499063 -15.470117
v 10.470008 5.499063 15.470117
v 10.470008 -5.499063 -12.376094
v 10.470008 -5.499063 12.685495
v -10.214642 -1.638429 -12.376094
v -10.214642 -1.638429 12.685495
v 10.470008 -1.638429 -12.376094
v 10.470008 -1.638429 12.685495
v -12.768302 5.499063 0.154701
v 12.768302 -5.499063 0.154701
v -12.768302 -5.499063 0.154700
v 12.768302 5.499063 0.154700
v -10.214642 -5.499063 0.154700
v -10.214642 5.499063 0.154700
v 10.470008 5.499063 0.154700
v 10.470008 -5.499063 0.154700
v -10.214642 -1.638429 0.154700
v 10.470008 -1.638429 0.154700
v -12.768302 -5.499063 6.420098
v 12.768302 5.499063 6.420098
v -10.214642 -5.499063 6.420098
v -10.214642 5.499063 6.420098
v 10.470008 5.499063 6.420098
v 10.470008 -5.499063 6.420098
v -10.214642 -1.638429 6.420098
v 10.470008 -1.638429 6.420098
v -12.768302 5.499063 6.420098
v 12.768302 -5.499063 6.420098
v -0.529992 5.499063 0.154700
v -0.529992 -1.638429 0.154700
v -0.529992 5.499063 6.420098
v -0.529992 -1.638429 6.420098
v 0.127683 -5.499063 -15.470117
v 0.127683 5.499063 15.470117
v 0.127683 -5.499063 -12.376094
v 0.127683 -5.499063 12.685495
v 0.127684 5.499063 -15.470117
v 0.127684 -5.499063 15.470117
v 0.127684 5.499063 -12.376094
v 0.127684 5.499063 12.685495
v 0.127684 -1.638429 -12.376094
v 0.127684 -1.638429 12.685495
v 0.127684 -1.638429 0.154700
v 0.127683 -5.499063 0.154700
v 0.127684 -1.638429 6.420098
v 0.127683 -5.499063 6.420098
v -10.214642 -1.638429 -12.376094
v -10.214642 5.499063 -12.376094
v 0.127684 5.499063 -12.376094
v 0.127684 -1.638429 -12.376094
v -7.629061 -5.499063 -15.470117
v -7.629061 5.499063 15.470117
v -7.629061 -5.499063 -12.376094
v -7.629061 -5.499063 12.685495
v -7.629061 -5.499063 0.154700
v -7.629061 -5.499063 6.420098
v -7.629060 5.499063 -15.470117
v -7.629060 -5.499063 15.470117
v -7.629060 5.499063 -12.376094
v -7.629060 5.499063 12.685495
v -7.629060 -1.638429 -12.376094
v -7.629060 -1.638429 12.685495
v -7.629060 -1.638429 0.154700
v -7.629060 -1.638429 6.420098
v -7.629060 5.499063 -12.376094
v -7.629060 -1.638429 -12.376094
v -7.629060 5.499063 -5.583384
v 0.127684 5.499063 -5.583384
v -7.629060 -1.638429 -5.583384
v 0.127684 -1.638429 -5.583384
v -7.629060 5.499063 -5.583384
v 0.127684 5.499063 -5.583384
v -7.629060 -1.638429 -5.583384
v 0.127684 -1.638429 -5.583384
v -0.529992 5.499063 0.154700
v -0.529992 -1.638429 0.154700
v -0.529992 5.499063 6.420098
v -0.529992 -1.638429 6.420098
v -10.214642 1.872594 6.420098
v -10.214642 1.872594 12.685495
v -7.629060 1.872594 12.685495
v -7.629060 1.872594 6.420098
vt 0.462050 0.471367
vt 0.604160 0.431387
vt 0.604160 0.471367
vt 0.767337 0.731658
vt 0.625226 0.761355
vt 0.625226 0.731658
vt 0.298873 0.467369
vt 0.440983 0.431387
vt 0.440983 0.467369
vt 0.634402 0.825314
vt 0.451978 0.867670
vt 0.451978 0.825314
vt 0.340500 0.374341
vt 0.310802 0.410322
vt 0.310802 0.374341
vt 0.433040 0.476480
vt 0.390683 0.522669
vt 0.390683 0.476480
vt 0.433040 0.009470
vt 0.390683 0.060789
vt 0.390683 0.009470
vt 0.340500 0.010532
vt 0.310802 0.050512
vt 0.310802 0.010532
vt 0.298873 0.831177
vt 0.440983 0.791198
vt 0.440983 0.831177
vt 0.462050 0.633282
vt 0.604160 0.633282
vt 0.462050 0.831177
vt 0.604160 0.795196
vt 0.604160 0.831177
vt 0.433040 0.372558
vt 0.390683 0.372558
vt 0.340500 0.293384
vt 0.310802 0.293384
vt 0.298873 0.548326
vt 0.440983 0.548326
vt 0.043530 0.293384
vt 0.010533 0.374341
vt 0.010533 0.293384
vt 0.875777 0.010533
vt 0.968002 0.144170
vt 0.875777 0.144170
vt 0.043530 0.010532
vt 0.010533 0.050512
vt 0.010533 0.010532
vt 0.347796 0.060789
vt 0.347796 0.009470
vt 0.347796 0.522669
vt 0.347796 0.476480
vt 0.513803 0.929495
vt 0.559991 0.971852
vt 0.513803 0.971852
vt 0.634402 0.782427
vt 0.451978 0.782427
vt 0.146795 0.743000
vt 0.189153 0.925424
vt 0.146795 0.925424
vt 0.634402 0.444099
vt 0.451978 0.482221
vt 0.451978 0.444099
vt 0.047590 0.476480
vt 0.009469 0.522669
vt 0.009469 0.476480
vt 0.047590 0.009470
vt 0.009469 0.060789
vt 0.009469 0.009470
vt 0.047590 0.372558
vt 0.009469 0.372558
vt 0.177166 0.374341
vt 0.177166 0.293384
vt 0.177166 0.050512
vt 0.177166 0.010532
vt 0.177166 0.410322
vt 0.767337 0.598022
vt 0.625226 0.598022
vt 0.814008 0.009469
vt 0.932396 0.113392
vt 0.814008 0.113392
vt 0.824687 0.525000
vt 0.748750 0.525000
vt 0.824687 0.525000
vt 0.009469 0.541607
vt 0.127857 0.749453
vt 0.009469 0.749453
vt 0.814008 0.217315
vt 0.932396 0.425160
vt 0.814008 0.425160
vt 0.795070 0.009469
vt 0.752184 0.217315
vt 0.752184 0.009469
vt 0.177166 0.212427
vt 0.047590 0.060789
vt 0.009469 0.268635
vt 0.043530 0.050512
vt 0.010533 0.212427
vt 0.653340 0.755868
vt 0.835764 0.548022
vt 0.835764 0.755868
vt 0.340500 0.050512
vt 0.310802 0.212427
vt 0.433040 0.060789
vt 0.390683 0.268635
vt 0.604160 0.714238
vt 0.284122 0.732091
vt 0.388044 0.914515
vt 0.284122 0.914515
vt 0.854702 0.562487
vt 0.958625 0.444099
vt 0.958625 0.562487
vt 0.932396 0.217315
vt 0.795070 0.217315
vt 0.752184 0.321238
vt 0.047590 0.268635
vt 0.043530 0.212427
vt 0.653340 0.548022
vt 0.835764 0.444099
vt 0.340500 0.212427
vt 0.433040 0.268635
vt 0.647500 0.626250
vt 0.647500 0.676875
vt 0.647500 0.626250
vt 0.880629 0.776284
vt 0.788404 0.918419
vt 0.788404 0.776284
vt 0.230045 0.372558
vt 0.146795 0.724062
vt 0.265183 0.541607
vt 0.265183 0.724062
vt 0.076939 0.293384
vt 0.076939 0.212427
vt 0.623524 0.217315
vt 0.451978 0.321238
vt 0.451978 0.217315
vt 0.076939 0.050512
vt 0.623524 0.009469
vt 0.451978 0.009469
vt 0.284122 0.541607
vt 0.402510 0.713153
vt 0.284122 0.713153
vt 0.623524 0.321238
vt 0.451978 0.425160
vt 0.767337 0.497794
vt 0.625226 0.497794
vt 0.076939 0.410322
vt 0.076939 0.374341
vt 0.076939 0.010532
vt 0.634402 0.482221
vt 0.451978 0.653767
vt 0.219136 0.476480
vt 0.047590 0.522669
vt 0.219136 0.009470
vt 0.968002 0.244397
vt 0.875777 0.244397
vt 0.907808 0.893194
vt 0.950695 0.774806
vt 0.950695 0.893194
vt 0.824687 0.525000
vt 0.850000 0.525000
vt 0.824687 0.525000
vt 0.748750 0.525000
vt 0.748750 0.525000
vt 0.850000 0.525000
vt 0.850000 0.525000
vt 0.748750 0.525000
vt 0.931877 0.699814
vt 0.974763 0.581425
vt 0.974763 0.699814
vt 0.043530 0.374341
vt 0.513803 0.886608
vt 0.559991 0.929495
vt 0.189153 0.743000
vt 0.232038 0.925424
vt 0.850000 0.525000
vt 0.623524 0.425160
vt 0.219136 0.522669
vt 0.219136 0.060789
vt 0.748750 0.525000
vt 0.824687 0.525000
vt 0.748750 0.525000
vt 0.989467 0.523614
vt 0.901696 0.431389
vt 0.989467 0.431389
vt 0.875776 0.298873
vt 0.963547 0.391099
vt 0.875776 0.391099
vt 0.766009 0.903466
vt 0.653340 0.774806
vt 0.766009 0.774806
vt 0.009469 0.768391
vt 0.127857 0.897050
vt 0.009469 0.897050
vt 0.824687 0.525000
vt 0.824687 0.525000
vt 0.824687 0.525000
vt 0.748750 0.525000
vt 0.748750 0.525000
vt 0.784948 0.893194
vt 0.888870 0.774806
vt 0.888870 0.893194
vt 0.647500 0.626250
vt 0.647500 0.626250
vt 0.647500 0.676875
vt 0.647500 0.676875
vt 0.647500 0.676875
vt 0.494865 0.886608
vt 0.451978 0.990531
vt 0.451978 0.886608
vt 0.854702 0.581425
vt 0.912939 0.685348
vt 0.854702 0.685348
vt 0.621816 0.886608
vt 0.578929 0.944845
vt 0.578929 0.886608
vt 0.462050 0.431387
vt 0.767337 0.761355
vt 0.298873 0.431387
vt 0.634402 0.867670
vt 0.340500 0.410322
vt 0.433040 0.522669
vt 0.298873 0.791198
vt 0.462050 0.795196
vt 0.968002 0.010533
vt 0.932396 0.009469
vt 0.127857 0.541607
vt 0.462050 0.714238
vt 0.388044 0.732091
vt 0.854702 0.444099
vt 0.795070 0.321238
vt 0.653340 0.444099
vt 0.880629 0.918419
vt 0.230045 0.268635
vt 0.146795 0.541607
vt 0.402510 0.541607
vt 0.634402 0.653767
vt 0.907808 0.774806
vt 0.931877 0.581425
vt 0.559991 0.886608
vt 0.232038 0.743000
vt 0.752184 0.425161
vt 0.901696 0.523614
vt 0.963547 0.298873
vt 0.653340 0.903466
vt 0.127857 0.768391
vt 0.784948 0.774806
vt 0.494865 0.990531
vt 0.912939 0.581425
vt 0.621816 0.944845
vn -1.0000 0.0000 0.0000
vn 0.0000 0.0000 -1.0000
vn 1.0000 0.0000 0.0000
vn 0.0000 0.0000 1.0000
vn 0.0000 -1.0000 0.0000
vn 0.0000 1.0000 0.0000
s off
f 10/1/1 3/2/1 9/3/1
f 25/4/2 7/5/2 29/6/2
f 14/7/3 5/8/3 16/9/3
f 20/10/4 1/11/4 19/12/4
f 16/13/5 26/14/5 32/15/5
f 15/16/6 20/17/6 23/18/6
f 4/19/6 21/20/6 18/21/6
f 7/22/5 31/23/5 29/24/5
f 8/25/3 11/26/3 7/27/3
f 37/28/1 9/3/1 39/29/1
f 2/30/1 13/31/1 1/32/1
f 55/33/6 23/18/6 50/34/6
f 56/35/5 32/15/5 52/36/5
f 48/37/3 16/9/3 56/38/3
f 49/39/5 13/40/5 47/41/5
f 28/42/2 70/43/2 68/44/2
f 17/45/5 9/46/5 3/47/5
f 18/21/6 87/48/6 85/49/6
f 23/18/6 80/50/6 88/51/6
f 24/52/5 1/53/5 13/54/5
f 80/55/4 19/12/4 86/56/4
f 4/57/2 17/58/2 3/59/2
f 6/60/4 26/61/4 5/62/4
f 28/63/6 6/64/6 14/65/6
f 25/66/6 12/67/6 8/68/6
f 51/69/6 14/65/6 48/70/6
f 52/36/5 64/71/5 74/72/5
f 29/24/5 63/73/5 61/74/5
f 32/15/5 66/75/5 64/71/5
f 65/76/2 29/6/2 61/77/2
f 23/78/3 53/79/3 50/80/3
f 89/81/4 78/82/4 94/83/4
f 27/84/1 46/85/1 43/86/1
f 42/87/3 33/88/3 21/89/3
f 33/90/6 91/91/6 89/92/6
f 31/23/5 72/93/5 63/73/5
f 27/94/6 40/95/6 12/67/6
f 22/96/5 39/97/5 9/46/5
f 12/98/3 38/99/3 11/100/3
f 11/101/5 44/102/5 31/23/5
f 10/103/6 42/104/6 21/20/6
f 47/105/1 37/28/1 39/29/1
f 15/106/1 47/107/1 13/108/1
f 51/109/1 36/110/1 28/111/1
f 50/80/3 45/112/3 42/87/3
f 45/113/6 92/114/6 91/91/6
f 44/102/5 74/72/5 72/93/5
f 43/115/6 48/70/6 40/95/6
f 41/116/5 47/41/5 39/97/5
f 40/117/3 56/118/3 38/99/3
f 38/119/5 52/36/5 44/102/5
f 37/120/6 50/34/6 42/104/6
f 58/121/4 106/122/4 104/123/4
f 46/124/2 57/125/2 43/126/2
f 43/115/6 59/127/6 51/69/6
f 51/128/4 60/129/4 54/130/4
f 72/93/5 84/131/5 83/132/5
f 71/133/6 54/134/6 46/135/6
f 63/73/5 83/132/5 81/136/5
f 69/137/6 46/135/6 35/138/6
f 67/139/4 35/140/4 27/141/4
f 73/142/6 36/143/6 54/134/6
f 85/144/2 61/77/2 79/145/2
f 64/71/5 86/146/5 82/147/5
f 61/74/5 81/136/5 79/148/5
f 74/72/5 82/147/5 84/131/5
f 30/149/4 66/150/4 26/61/4
f 68/151/6 30/152/6 28/63/6
f 65/153/6 27/94/6 25/66/6
f 68/44/2 90/154/2 88/155/2
f 76/156/4 94/157/4 93/158/4
f 87/159/4 76/160/4 93/161/4
f 69/162/4 77/163/4 78/82/4
f 21/164/4 75/165/4 76/160/4
f 67/166/4 93/161/4 77/163/4
f 88/167/2 34/168/2 23/169/2
f 84/131/5 24/170/5 49/39/5
f 79/148/5 22/96/5 17/45/5
f 82/171/5 19/172/5 24/52/5
f 18/173/2 79/174/2 17/58/2
f 81/136/5 41/116/5 22/96/5
f 83/132/5 49/39/5 41/116/5
f 91/91/6 73/142/6 71/133/6
f 89/92/6 71/133/6 69/137/6
f 33/175/4 94/83/4 75/165/4
f 92/114/6 70/176/6 73/142/6
f 66/150/4 80/55/4 86/56/4
f 68/151/6 80/50/6 62/177/6
f 85/49/6 67/178/6 65/153/6
f 96/179/4 99/180/4 100/181/4
f 77/182/3 98/183/3 78/184/3
f 94/185/1 95/186/1 93/187/1
f 93/188/6 96/189/6 77/190/6
f 99/191/4 102/192/4 100/193/4
f 95/194/4 101/195/4 99/180/4
f 97/196/4 102/197/4 101/195/4
f 98/198/4 100/181/4 102/197/4
f 103/199/1 106/200/1 105/201/1
f 57/202/4 104/123/4 103/203/4
f 60/204/4 105/205/4 106/122/4
f 59/206/4 103/203/4 105/205/4
f 107/207/6 109/208/6 110/209/6
f 92/210/3 109/211/3 90/212/3
f 53/213/2 110/214/2 92/215/2
f 10/1/1 4/216/1 3/2/1
f 25/4/2 8/217/2 7/5/2
f 14/7/3 6/218/3 5/8/3
f 20/10/4 2/219/4 1/11/4
f 16/13/5 5/220/5 26/14/5
f 15/16/6 2/221/6 20/17/6
f 4/19/6 10/103/6 21/20/6
f 7/22/5 11/101/5 31/23/5
f 8/25/3 12/222/3 11/26/3
f 37/28/1 10/1/1 9/3/1
f 2/30/1 15/223/1 13/31/1
f 55/33/6 15/16/6 23/18/6
f 56/35/5 16/13/5 32/15/5
f 48/37/3 14/7/3 16/9/3
f 49/39/5 24/170/5 13/40/5
f 28/42/2 36/224/2 70/43/2
f 17/45/5 22/96/5 9/46/5
f 18/21/6 21/20/6 87/48/6
f 23/18/6 20/17/6 80/50/6
f 24/52/5 19/172/5 1/53/5
f 80/55/4 20/10/4 19/12/4
f 4/57/2 18/173/2 17/58/2
f 6/60/4 30/149/4 26/61/4
f 28/63/6 30/152/6 6/64/6
f 25/66/6 27/94/6 12/67/6
f 51/69/6 28/63/6 14/65/6
f 52/36/5 32/15/5 64/71/5
f 29/24/5 31/23/5 63/73/5
f 32/15/5 26/14/5 66/75/5
f 65/76/2 25/4/2 29/6/2
f 23/78/3 34/225/3 53/79/3
f 89/81/4 69/162/4 78/82/4
f 27/84/1 35/226/1 46/85/1
f 42/87/3 45/112/3 33/88/3
f 33/90/6 45/113/6 91/91/6
f 31/23/5 44/102/5 72/93/5
f 27/94/6 43/115/6 40/95/6
f 22/96/5 41/116/5 39/97/5
f 12/98/3 40/117/3 38/99/3
f 11/101/5 38/119/5 44/102/5
f 10/103/6 37/120/6 42/104/6
f 47/105/1 55/227/1 37/28/1
f 15/106/1 55/228/1 47/107/1
f 51/109/1 54/229/1 36/110/1
f 50/80/3 53/79/3 45/112/3
f 45/113/6 53/230/6 92/114/6
f 44/102/5 52/36/5 74/72/5
f 43/115/6 51/69/6 48/70/6
f 41/116/5 49/39/5 47/41/5
f 40/117/3 48/231/3 56/118/3
f 38/119/5 56/35/5 52/36/5
f 37/120/6 55/33/6 50/34/6
f 58/121/4 60/204/4 106/122/4
f 46/124/2 58/232/2 57/125/2
f 43/115/6 57/233/6 59/127/6
f 51/128/4 59/234/4 60/129/4
f 72/93/5 74/72/5 84/131/5
f 71/133/6 73/142/6 54/134/6
f 63/73/5 72/93/5 83/132/5
f 69/137/6 71/133/6 46/135/6
f 67/139/4 69/235/4 35/140/4
f 73/142/6 70/176/6 36/143/6
f 85/144/2 65/76/2 61/77/2
f 64/71/5 66/75/5 86/146/5
f 61/74/5 63/73/5 81/136/5
f 74/72/5 64/71/5 82/147/5
f 30/149/4 62/236/4 66/150/4
f 68/151/6 62/177/6 30/152/6
f 65/153/6 67/178/6 27/94/6
f 68/44/2 70/43/2 90/154/2
f 76/156/4 75/237/4 94/157/4
f 87/159/4 21/164/4 76/160/4
f 69/162/4 67/166/4 77/163/4
f 21/164/4 33/175/4 75/165/4
f 67/166/4 87/159/4 93/161/4
f 88/167/2 90/238/2 34/168/2
f 84/131/5 82/147/5 24/170/5
f 79/148/5 81/136/5 22/96/5
f 82/171/5 86/239/5 19/172/5
f 18/173/2 85/240/2 79/174/2
f 81/136/5 83/132/5 41/116/5
f 83/132/5 84/131/5 49/39/5
f 91/91/6 92/114/6 73/142/6
f 89/92/6 91/91/6 71/133/6
f 33/175/4 89/81/4 94/83/4
f 92/114/6 90/241/6 70/176/6
f 66/150/4 62/236/4 80/55/4
f 68/151/6 88/51/6 80/50/6
f 85/49/6 87/48/6 67/178/6
f 96/179/4 95/194/4 99/180/4
f 77/182/3 96/242/3 98/183/3
f 94/185/1 97/243/1 95/186/1
f 93/188/6 95/244/6 96/189/6
f 99/191/4 101/245/4 102/192/4
f 95/194/4 97/196/4 101/195/4
f 97/196/4 98/198/4 102/197/4
f 98/198/4 96/179/4 100/181/4
f 103/199/1 104/246/1 106/200/1
f 57/202/4 58/121/4 104/123/4
f 60/204/4 59/206/4 105/205/4
f 59/206/4 57/202/4 103/203/4
f 107/207/6 108/247/6 109/208/6
f 92/210/3 110/248/3 109/211/3
f 53/213/2 107/249/2 110/214/2
